<?xml version="1.0" standalone="no"?>
<!DOCTYPE svg PUBLIC "-//W3C//DTD SVG 1.1//EN" "http://www.w3.org/Graphics/SVG/1.1/DTD/svg11.dtd" >
<svg xmlns="http://www.w3.org/2000/svg">
<metadata>
Created by FontForge 20120731 at Wed Jul  5 11:53:32 2017
 By admin
</metadata>
<defs>
<font id="iconfont" horiz-adv-x="1024" >
  <font-face 
    font-family="iconfont"
    font-weight="500"
    font-stretch="normal"
    units-per-em="1024"
    panose-1="2 0 6 3 0 0 0 0 0 0"
    ascent="896"
    descent="-128"
    x-height="792"
    bbox="-0.53125 -224 1485 896"
    underline-thickness="0"
    underline-position="0"
    unicode-range="U+0078-E933"
  />
<missing-glyph 
 />
    <glyph glyph-name=".notdef" 
 />
    <glyph glyph-name=".notdef" 
 />
    <glyph glyph-name=".null" horiz-adv-x="0" 
 />
    <glyph glyph-name="nonmarkingreturn" horiz-adv-x="341" 
 />
    <glyph glyph-name="x" unicode="x" horiz-adv-x="1001" 
d="M281 543q-27 -1 -53 -1h-83q-18 0 -36.5 -6t-32.5 -18.5t-23 -32t-9 -45.5v-76h912v41q0 16 -0.5 30t-0.5 18q0 13 -5 29t-17 29.5t-31.5 22.5t-49.5 9h-133v-97h-438v97zM955 310v-52q0 -23 0.5 -52t0.5 -58t-10.5 -47.5t-26 -30t-33 -16t-31.5 -4.5q-14 -1 -29.5 -0.5
t-29.5 0.5h-32l-45 128h-439l-44 -128h-29h-34q-20 0 -45 1q-25 0 -41 9.5t-25.5 23t-13.5 29.5t-4 30v167h911zM163 247q-12 0 -21 -8.5t-9 -21.5t9 -21.5t21 -8.5q13 0 22 8.5t9 21.5t-9 21.5t-22 8.5zM316 123q-8 -26 -14 -48q-5 -19 -10.5 -37t-7.5 -25t-3 -15t1 -14.5
t9.5 -10.5t21.5 -4h37h67h81h80h64h36q23 0 34 12t2 38q-5 13 -9.5 30.5t-9.5 34.5q-5 19 -11 39h-368zM336 498v228q0 11 2.5 23t10 21.5t20.5 15.5t34 6h188q31 0 51.5 -14.5t20.5 -52.5v-227h-327z" />
    <glyph glyph-name="qushi" unicode="&#xe60e;" 
d="M129 43h127v-126h-127v126zM348 149h128v-232h-128v232zM546 271h128v-356h-128v356zM767 397h127v-482h-127v482zM152 149l-44 43l360 365l34 -197l310 285l41 -45l-393 -361l-32 190zM702 622l193 64l-62 -195l-34 115z" />
    <glyph glyph-name="trade" unicode="&#xe60f;" 
d="M745 693q-55 11 -99 27.5t-68 32.5t-40 30t-21 23l-5 9q-5 -4 -14 -11t-36 -25.5t-53 -33.5t-62 -30.5t-67 -21.5q-49 -10 -104.5 -13t-86.5 0l-30 2q11 -278 11 -499q0 -35 15 -71.5t40.5 -68t58.5 -62t70 -55.5t73.5 -47.5t70 -39.5t59 -29.5t40.5 -18.5l15 -6
q9 4 25 11t62 30t88 48t93 62t88 74t62 83t25 90q0 222 11 499q-111 -11 -221 11zM900 200q0 -38 -21.5 -77t-55.5 -72t-75.5 -63t-83 -53.5t-75.5 -40.5t-55.5 -26.5l-21.5 -9.5q-8 3 -22 9t-54.5 25.5t-77 40.5t-81.5 52.5t-77 63.5t-54 72t-22 79q0 53 -1 116.5
t-2.5 116.5t-3 97.5t-2.5 71t-1 25.5q97 -10 194 9q43 9 94 35t80 48l30 21q1 -2 4 -7t18 -19t35.5 -26.5t59.5 -27.5t87 -24q43 -8 91.5 -10.5t75.5 -0.5l27 2q-10 -238 -10 -427zM417 491l-82 29q-10 -27 -25 -57q-13 -25 -34 -57t-51 -64l20 -16q9 -7 14 -11q6 -5 6 -4
q3 2 10 7q3 3 9 8v-210h79v291q15 18 25 33q10 16 16 27q8 13 13 24zM694.5 237q-20.5 17 -34.5 38h107v36h-143v49h63q32 0 42.5 14.5t10.5 40.5v38q0 22 -7.5 35t-33 17.5t-73 1.5t-126.5 -12v9h-78v-152h78v8h42v-49h-147v-36h75q-2 -10 -6.5 -25t-13 -32t-22 -34.5
t-33.5 -33.5l31 -29q27 20 47 39t34 36.5t22 32.5t13 27v-140h82v140q6 -11 15 -26.5t22 -32.5t31 -34.5t42 -35.5l47 54q-24 12 -47 26q-19 13 -39.5 30zM500 395v67q20 3 40 5q18 3 40 5t44 2q25 0 31.5 -8t6.5 -21v-22q-1 -8 -4 -15q-4 -5 -11 -9t-23 -4h-124z" />
    <glyph glyph-name="qian" unicode="&#xe61a;" 
d="M580 -210q-26 -2 -57.5 -2t-50.5 1l-19 1q-7 1 -19.5 1.5t-49 7t-69.5 17t-73.5 32.5t-69.5 50.5t-49 75.5t-20 104t18.5 113t48 100t66 84t72 69t65.5 50.5t48.5 32l18.5 10.5h155q6 -5 17.5 -13t45 -35.5t63.5 -56.5t67 -72.5t64 -86.5t45 -96.5t18 -103.5
q0 -40 -11.5 -75.5t-31 -61.5t-44.5 -48t-52.5 -36.5t-55.5 -26t-53 -18t-44.5 -10.5t-31 -5.5l-11.5 -1.5v0zM440 555v55h155v-55h-155v0zM592 628h-149l-80 180q47 -37 76 -37q13 0 32.5 9.5t32.5 18.5l14 10q46 -38 74 -38q13 0 33 10t33 19l13 10l-79 -182v0zM471 -51
h70v68h93v55h-93v30h93v55h-66l79 156h-77l-51 -105q-8 -19 -13 -35q-4 15 -13 35l-50 105h-77l78 -156h-65v-55h92v-30h-92v-55h92v-68v0z" />
    <glyph glyph-name="next" unicode="&#xe614;" 
d="M759 319l-28 27l-2 2l-394 395q-6 5 -14 5t-14 -5l-27 -28q-5 -5 -5 -13t5 -14l383 -383l-389 -389q-6 -5 -6 -13.5t6 -13.5l28 -28q5 -6 13 -6t14 6l430 430q6 6 6 14t-6 14z" />
    <glyph glyph-name="gengduo" unicode="&#xe61f;" 
d="M161.5 398q40.5 0 69.5 -28.5t29 -69.5t-29 -69.5t-69.5 -28.5t-69 28.5t-28.5 69.5t28.5 69.5t69 28.5zM512 398q41 0 69.5 -28.5t28.5 -69.5t-28.5 -69.5t-69.5 -28.5t-69.5 28.5t-28.5 69.5t28.5 69.5t69.5 28.5zM862.5 398q40.5 0 69 -28.5t28.5 -69.5t-28.5 -69.5
t-69 -28.5t-69.5 28.5t-29 69.5t29 69.5t69.5 28.5z" />
    <glyph glyph-name="daohang" unicode="&#xe62f;" 
d="M559 -79h-4q-9 2 -16 8.5t-8 16.5l-56 402l-401 56q-10 1 -17 8t-8 17q-3 21 17 30l866 385q19 8 33 -6t6 -32l-385 -868q-8 -17 -27 -17zM182 447l322 -45q10 -2 16.5 -8.5t8.5 -16.5l45 -323l313 707z" />
    <glyph glyph-name="tubiao" unicode="&#xe606;" 
d="M628.5 743q-89.5 0 -165 -44t-119.5 -120t-44 -165q0 -82 38 -154l-229 -229v0q-29 -29 -29 -69t28.5 -68.5t68.5 -28.5t69 29v0l229 229q72 -39 154 -39q89 0 165 44.5t120 120t44 165t-44 165.5t-120 120t-165.5 44zM212 -72q-15 -15 -35 -15t-34.5 14.5t-14.5 34.5
t15 34v1l221 221q30 -39 69 -68zM629 139q-114 0 -194.5 80.5t-80.5 194.5t80.5 194t194.5 80t194.5 -80t80.5 -194t-80.5 -194.5t-194.5 -80.5zM629 606q-80 0 -136 -56t-56 -136q0 -6 4 -10t9.5 -4t9.5 4t4 10q0 68 48.5 116.5t116.5 48.5q6 0 10 4t4 9.5t-4 9.5t-10 4z
" />
    <glyph glyph-name="plus" unicode="&#xe60b;" 
d="M918 355h-318v318h-141v-318h-318v-141h318v-319h141v319h318v141z" />
    <glyph glyph-name="minus" unicode="&#xe60c;" 
d="M130 355h778v-141h-778v141z" />
    <glyph glyph-name="xiugaimima" unicode="&#xe608;" 
d="M524 44q0 -12 -8 -20t-20 -8h-353q-12 0 -20 8t-8 20v423q0 11 8 19t20 8h353q12 0 20 -8t8 -19v-118l50 49v69q0 31 -22.5 53t-55.5 22h-353q-32 0 -55 -22t-23 -53v-423q0 -32 23 -54t55 -22h353q33 0 55.5 22t22.5 54v94l-50 -49v-45zM156 244q0 -38 26.5 -65
t63.5 -27h27q37 0 63 27t26 65v97h-206v-97zM263.5 301q9.5 0 16.5 -7t7 -17q0 -16 -14 -22v-43q0 -9 -9 -9t-9 9v43q-15 6 -15 22q0 10 7 17t16.5 7zM334 359v30q0 25 -17 42.5t-41 17.5h-29q-24 0 -41.5 -17.5t-17.5 -42.5v-30h34v30q0 10 7.5 18t17.5 8h29q10 0 17.5 -8
t7.5 -18v-30h33zM483 266l95 -91l312 300l-95 92zM938.5 614q-19.5 19 -47.5 19t-48 -19l-26 -26l95 -92l26 26q20 19 20 46t-19.5 46zM558 163l-87 84l-81 -129l32 -31zM375 105l-46 -75l77 45z" />
    <glyph glyph-name="jia" unicode="&#xe620;" 
d="M64 310h895v-11h-895v11zM502 747h10v-894h-10v894z" />
    <glyph glyph-name="fanhui" unicode="&#xe604;" 
d="M738 642l-75 75l-350 -350v0l-74 -74v-1v0l75 -75v0l345 -345l74 74l-345 346z" />
    <glyph glyph-name="shouji" unicode="&#xe605;" 
d="M741 647h-463v55q0 5 3.5 8.5t8.5 3.5h439q5 0 8.5 -3.5t3.5 -8.5v-55zM741 86h-463v528h463v-528zM741 -100q0 -5 -3.5 -8.5t-8.5 -3.5h-439q-5 0 -8.5 3.5t-3.5 8.5v153h463v-153zM729 747h-439q-19 0 -32 -13.5t-13 -31.5v-802q0 -19 13 -32t32 -13h439q19 0 32 13
t13 32v802q0 18 -13 31.5t-32 13.5zM460 -13h99v-33h-99v33z" />
    <glyph glyph-name="shuaxin" unicode="&#xe625;" 
d="M961 69v0h-81q25 41 41 87q24 69 24 143q0 89 -34 170q-33 79 -93.5 139.5t-139.5 93.5q-81 34 -170 34q-75 0 -145 -25q-10 -3 -14.5 -12.5t-1 -19.5t13 -14.5t19.5 -1.5q62 22 128 22q78 0 148.5 -29t125 -84t83.5 -125t29 -148q0 -65 -21 -126q-14 -40 -36 -76l-26 74
q-3 10 -12.5 14.5t-19.5 1t-14.5 -13t-1.5 -19.5l41 -119q2 -6 7 -10q7 -8 18 -8v0l132 1q11 0 18.5 7.5t7 18t-8 18t-17.5 7.5zM676 -49q-79 -38 -168 -38q-77 0 -147.5 29.5t-125 84t-83.5 125t-29 147.5q0 129 76 231l34 -93q6 -17 24 -17q4 0 9 1q10 4 14.5 13.5
t0.5 19.5l-46 128q-7 20 -27 17q-3 1 -6 1v0l-137 -1q-11 0 -18.5 -7.5t-7.5 -18t7.5 -18t18.5 -7.5v0h84q-78 -112 -78 -249q0 -89 35 -170q33 -78 93.5 -138.5t138.5 -93.5q81 -35 170 -35q100 0 190 43q9 5 12.5 15t-1 19.5t-14.5 13t-19 -1.5z" />
    <glyph glyph-name="mima" unicode="&#xe607;" 
d="M804 396v128q0 119 -84.5 203.5t-203.5 84.5t-203.5 -84.5t-84.5 -203.5v-128q-40 0 -68 -28t-28 -68v-224q0 -119 84.5 -203.5t203.5 -84.5h192q119 0 203.5 84.5t84.5 203.5v224q0 40 -28 68t-68 28zM292 524q0 93 65.5 158.5t158.5 65.5t158.5 -65.5t65.5 -158.5v-128
h-64v128q0 66 -47 113t-113 47t-113 -47t-47 -113v-128h-64v128zM644 524v-128h-256v128q0 53 37.5 90.5t90.5 37.5t90.5 -37.5t37.5 -90.5zM836 204v-128q0 -93 -65.5 -158.5t-158.5 -65.5h-192q-93 0 -158.5 65.5t-65.5 158.5v224q0 13 9.5 22.5t22.5 9.5h64h448h64
q13 0 22.5 -9.5t9.5 -22.5v-96zM516 204q27 0 45.5 -18.5t18.5 -45.5q0 -28 -21 -86q-8 -21 -17 -31.5t-26 -10.5q-27 0 -43 42q-21 59 -21 86t18.5 45.5t45.5 18.5z" />
    <glyph glyph-name="mail" unicode="&#xe61d;" horiz-adv-x="1026" 
d="M0 620v-640h1026v640h-1026zM878 556l-365 -319l-255 223l-108 96h728zM63 556h12l255 -223l-267 -230v453v0zM72 44l294 258l147 -130l156 137l286 -265h-883zM958 108l-247 226l242 222h5v-448z" />
    <glyph glyph-name="home" unicode="&#xe600;" 
d="M804 -211h-119q-38 0 -67 29.5t-29 67.5v207l-4 5h-145l-4 -5v-207q0 -37 -30 -67t-66 -30h-119q-37 0 -66 29.5t-29 67.5v363l-5 5h-45q-55 0 -71 39q-14 33 13 61q32 32 153 159q170 178 233 242q52 53 110 53t110 -53q63 -65 234 -245q117 -124 148 -156
q28 -28 14 -61q-16 -39 -71 -39h-45l-5 -5v-363q0 -37 -29.5 -67t-65.5 -30zM421 144h183l32 -32v-226q0 -19 15 -35t34 -16h119q16 0 32.5 16t16.5 35v382l32 32h64q24 0 28 11q2 4 -4 10q-30 31 -149 157q-170 180 -233 245q-77 78 -154 0q-62 -64 -233 -243
q-121 -127 -152 -158q-6 -6 -5 -11q5 -11 29 -11h64l32 -32v-382q0 -19 15.5 -35t33.5 -16h119q17 0 33 16.5t16 34.5v226z" />
    <glyph glyph-name="shangla" unicode="&#xe610;" 
d="M380 -29h264v-117h-264v117zM380 146h264v-117h-264v117zM644 426h-264v-221h264v221zM799 409q27 0 35 15t-11 34l-257 260q-21 18 -30 24.5t-21.5 6t-21 -6.5t-30.5 -24l-262 -260q-19 -19 -11 -34t35 -15h574z" />
    <glyph glyph-name="cuowu" unicode="&#xe613;" 
d="M512 -147q-91 0 -174 35.5t-143 95t-95.5 142.5t-35.5 174t35.5 174t95.5 143t143 95.5t174 35.5t174 -35.5t142.5 -95.5t95 -143t35.5 -174t-35.5 -174t-95 -142.5t-142.5 -95t-174 -35.5zM720 510v0q-16 16 -38.5 16t-37.5 -16l-133 -133l-132 131q-15 16 -37.5 16
t-37.5 -16v0q-16 -16 -16 -38t16 -37l131 -132l-133 -133q-16 -15 -16 -37.5t16 -38.5v0q16 -15 38 -15t38 15l133 133l133 -133q16 -15 38 -15t38 15v0q15 16 15 38t-15 38l-133 133l133 133q15 16 15 38t-15 38z" />
    <glyph glyph-name="22" unicode="&#xe609;" 
d="M511 -107q-85 0 -162 33q-74 31 -131.5 88.5t-89.5 132.5q-33 77 -33 161.5t33 161.5q32 75 89.5 132.5t131.5 89.5q77 32 162 32t162 -32q74 -32 131.5 -89.5t89.5 -132.5q33 -77 33 -161.5t-33 -161.5q-32 -75 -89.5 -132.5t-131.5 -88.5q-77 -33 -162 -33zM511 686
q-102 0 -189.5 -50.5t-138 -137.5t-50.5 -189.5t50.5 -189.5t138 -137.5t189.5 -50.5t189.5 50.5t138 137.5t50.5 189.5t-50.5 189.5t-138 137.5t-189.5 50.5zM442 488h37v-255h-37v255zM442 271h255v-38h-255v38z" />
    <glyph glyph-name="icon" unicode="&#xe615;" 
d="M515 124q-78 0 -133.5 52t-55.5 125t55.5 124.5t134 51.5t134 -51.5t55.5 -124.5t-55.5 -125t-134.5 -52v0zM514 419q-52 0 -89 -34.5t-37 -83t37.5 -83.5t89.5 -35t88.5 35t36.5 84q0 48 -37 82.5t-89 34.5v0zM1017 293q-1 -1 -1 -2.5v-2.5l-0.5 -0.5l-0.5 -0.5v-1
t-1 -2q-67 -144 -204 -225t-298 -81t-298 81.5t-204 225.5q-1 0 -1 1v1l-0.5 0.5t-0.5 1.5v2t-1 2q-1 5 -1 8t1 8q1 1 1 2.5v1.5q0 1 0.5 1.5l0.5 0.5v1t1 2q67 144 205 226t299 82t297 -82t203 -227q1 0 1 -1v-1l0.5 -0.5t0.5 -1.5v-2.5t1 -1.5q1 -5 1 -8t-1 -8v0zM514 567
q-140 0 -260.5 -69t-182.5 -197q62 -128 181.5 -196t259.5 -68t259.5 68t181.5 196q-62 128 -181 197t-258 69v0z" />
    <glyph glyph-name="woyaotouzi2" unicode="&#xe601;" horiz-adv-x="1025" 
d="M512 812q-104 0 -199 -40.5t-163.5 -109t-109 -163.5t-40.5 -199t40.5 -199t109 -163.5t163.5 -109t199 -40.5t199 40.5t163.5 109t109 163.5t40.5 199t-40.5 199t-109 163.5t-163.5 109t-199 40.5v0zM275 553q-6 9 -4 24q2 14 11 22q10 8 25 6q16 -3 24 -15l184 -195
l175 188q12 15 26 19q14 3 25 -5q11 -9 13 -24q1 -14 -10 -28l-196 -212v-26h162q12 0 22 -10q10 -9 10 -25t-10 -24t-22 -8h-162v-41h165q11 0 19 -8t8 -19v0q0 -11 -8 -19t-19 -8h-165v-154q0 -12 -11 -21q-12 -11 -24 -11q-12 1 -22 10q-11 10 -11 22v154h-162
q-12 0 -20 8t-8 19v0q0 11 8 19t20 8h162v41h-166q-14 0 -23 10q-9 11 -9 23q0 14 8 24t24 10h166l1 28l-206 218v0zM512 742q90 0 172 -35t141 -94t94 -141t35 -172t-35 -172t-94 -141t-141 -94t-172 -35t-172 35t-141 94t-94 141t-35 172t35 172t94 141t141 94t172 35z
" />
    <glyph glyph-name="iconfontcolor74" unicode="&#xe60d;" 
d="M960 812h-896q-27 0 -45.5 -18.5t-18.5 -45.5v-896q0 -27 18.5 -45.5t45.5 -18.5h896q27 0 45.5 18.5t18.5 45.5v896q0 27 -18.5 45.5t-45.5 18.5zM488 -92q0 -27 -18.5 -45.5t-45.5 -18.5h-304q-27 0 -45.5 18.5t-18.5 45.5v304q0 27 18.5 45.5t45.5 18.5h304
q27 0 45.5 -18.5t18.5 -45.5v-304zM488 388q0 -27 -18.5 -45.5t-45.5 -18.5h-304q-27 0 -45.5 18.5t-18.5 45.5v304q0 27 18.5 45.5t45.5 18.5h304q27 0 45.5 -18.5t18.5 -45.5v-304zM968 -92q0 -27 -18.5 -45.5t-45.5 -18.5h-304q-27 0 -45.5 18.5t-18.5 45.5v304
q0 27 18.5 45.5t45.5 18.5h304q27 0 45.5 -18.5t18.5 -45.5v-304zM968 388q0 -27 -18.5 -45.5t-45.5 -18.5h-304q-27 0 -45.5 18.5t-18.5 45.5v304q0 27 18.5 45.5t45.5 18.5h304q27 0 45.5 -18.5t18.5 -45.5v-304zM904 540q0 -10 -7 -17t-17 -7h-256q-10 0 -17 7t-7 17v0
q0 10 7 17t17 7h256q10 0 17 -7t7 -17v0zM400 564h-104v104q0 10 -7 17t-17 7t-17 -7t-7 -17v-104h-104q-10 0 -17 -7t-7 -17t7 -17t17 -7h104v-104q0 -10 7 -17t17 -7t17 7t7 17v104h104q10 0 17 7t7 17t-7 17t-17 7zM624 108h256q10 0 17 7t7 17t-7 17t-17 7h-256
q-10 0 -17 -7t-7 -17t7 -17t17 -7zM880 12h-256q-10 0 -17 -7t-7 -17t7 -17t17 -7h256q10 0 17 7t7 17t-7 17t-17 7zM379 -14l-73 74l73 74q8 7 8 16.5t-7.5 17t-17 7.5t-16.5 -8l-74 -73l-74 73q-7 8 -16.5 8t-17 -7.5t-7.5 -17t8 -16.5l73 -74l-73 -74q-8 -7 -8 -16.5
t7.5 -17t17 -7.5t16.5 8l74 73l74 -73q7 -8 16.5 -8t17 7.5t7.5 17t-8 16.5z" />
    <glyph glyph-name="liulan" unicode="&#xe60a;" 
d="M512 620q59 0 123 -27t116 -66.5t97.5 -85t73.5 -83t36 -58.5q-8 -21 -36 -58.5t-73.5 -83t-97.5 -85t-116 -66.5t-123 -27t-123.5 27t-116.5 67t-97.5 85t-73 82.5t-35.5 58.5q8 21 35.5 58.5t73 82.5t98 85t116.5 67t123 27zM512 684q-72 0 -150.5 -33.5t-141 -83.5
t-113.5 -104t-79 -98.5t-28 -64.5t28 -64.5t79 -98.5t113 -104t140.5 -83.5t151.5 -33.5t151 33.5t140.5 83.5t113.5 104t79 98.5t28 64.5t-28 64.5t-79.5 98.5t-113.5 104t-140.5 83.5t-150.5 33.5v0zM512 460q-66 0 -113 -47t-47 -113t47 -113t113 -47t113 47t47 113
t-47 113t-113 47zM512 204q-40 0 -68 28t-28 68t28 68t68 28t68 -28t28 -68t-28 -68t-68 -28z" />
    <glyph glyph-name="qunzuduoren" unicode="&#xe611;" 
d="M647 347q39 31 61.5 76t22.5 96q0 91 -64 155.5t-155 64.5t-155 -64.5t-64 -155.5q0 -51 22.5 -96t61.5 -76q-103 -41 -167 -133.5t-64 -206.5v-73q0 -15 11 -25.5t26 -10.5h658q15 0 26 10.5t11 25.5v73q0 114 -64 206.5t-167 133.5zM511.5 666q60.5 0 103.5 -43
t43 -103.5t-43 -103.5t-103.5 -43t-103 43t-42.5 103.5t42.5 103.5t103 43zM805 -29h-586v36q0 121 86 207t207 86t207 -86t86 -207v-36zM267 334l2 7q0 3 1 4q0 4 -1 9v2v2.5t-0.5 1l-0.5 0.5q0 2 -2 5q-3 5 -5 9h-1l-1 1q-4 5 -11 8q-30 13 -47.5 40t-17.5 60
q0 38 23.5 68t60.5 38q15 4 22.5 17t4 27.5t-16.5 22.5t-27 5q-62 -15 -101 -65t-39 -113q0 -70 47 -123q-72 -37 -114.5 -106.5t-42.5 -152.5v-57q0 -15 10.5 -26t26 -11t26 11t10.5 26v57q0 75 46 134.5t120 77.5q20 3 28 21zM867 360q47 53 47 123q0 62 -37.5 111
t-97.5 65q-15 4 -28 -3.5t-17 -22t3.5 -27.5t22.5 -17q36 -10 58.5 -39.5t22.5 -66.5q0 -33 -17.5 -60t-47.5 -40q-7 -3 -12 -8q0 -1 -0.5 -1h-0.5q-2 -3 -5 -9q-2 -4 -2 -5l-0.5 -0.5l-1 -1t0 -2.5l0.5 -2q-1 -5 -1 -9q0 -1 1 -4l2 -7q8 -18 28 -21q73 -18 119.5 -77.5
t46.5 -134.5v-57q0 -15 10.5 -26t25.5 -11t26 11t11 26v57q0 83 -42.5 152.5t-114.5 106.5z" />
    <glyph glyph-name="zhengque" unicode="&#xe612;" 
d="M512 683q-104 0 -192.5 -51t-139.5 -139.5t-51 -192.5t51 -192.5t139.5 -139.5t192.5 -51t192.5 51t139.5 139.5t51 192.5t-51 192.5t-139.5 139.5t-192.5 51zM753 426l-286 -286q-7 -7 -17 -7t-17 7l-161 161q-7 7 -7 17t7 17t16.5 7t16.5 -7l145 -144l269 269q7 7 17 7
t17 -7t7 -17t-7 -17z" />
    <glyph glyph-name="svg22" unicode="&#xe621;" 
d="M447 -2l44 -8l13 73l107 -19l8 39l-107 20l4 25l107 -19l8 39l-104 20l167 177l-47 9l-136 -149l-76 188l-54 10l95 -226l-106 19l-7 -39l109 -20l-4 -26l-110 20l-7 -39l109 -21zM710 488q26 44 55 82q20 28 6 67q-13 37 -48.5 67t-78.5 41q-70 18 -117 18
q-73 0 -90 -46q-10 -24 -4 -48q5 -20 11 -45l16 -68q-81 -12 -165 -61t-136 -129q-48 -72 -63 -151t6 -147q39 -124 188 -185q114 -47 234 -47v0q137 0 230.5 58t107.5 152q46 302 -152 442zM729 597q-29 -39 -56 -84q-67 42 -168 44l-19 77q-2 12 -10 45q-3 10 2 22
q6 18 49 18q41 0 106 -16q35 -9 61.5 -32.5t35.5 -47.5q6 -17 -1 -26zM474 513l13 2q96 -1 171 -44l21 -15q93 -64 127 -162.5t12 -241.5q-11 -77 -92.5 -124.5t-201.5 -47.5q-111 0 -217 44q-131 53 -163 157q-18 59 -4.5 128t55.5 133q48 74 126.5 118.5t152.5 52.5z" />
    <glyph glyph-name="gengduo1" unicode="&#xe602;" 
d="M128 402q-32 0 -54.5 23t-22.5 54v205q0 32 22.5 54.5t54.5 22.5h205q31 0 54 -22.5t23 -54.5v-205q0 -31 -23 -54t-54 -23h-205zM461 479v205q0 53 -37.5 90.5t-90.5 37.5h-205q-53 0 -90.5 -37.5t-37.5 -90.5v-205q0 -53 37.5 -90.5t90.5 -37.5h205q53 0 90.5 37.5
t37.5 90.5zM896 402h-205q-31 0 -54 23t-23 54v205q0 32 23 54.5t54 22.5h205q32 0 54.5 -22.5t22.5 -54.5v-205q0 -31 -22.5 -54t-54.5 -23zM1024 684q0 53 -37.5 90.5t-90.5 37.5h-205q-53 0 -90.5 -37.5t-37.5 -90.5v-205q0 -53 37.5 -90.5t90.5 -37.5h205
q53 0 90.5 37.5t37.5 90.5v205zM333 -161h-205q-32 0 -54.5 22.5t-22.5 54.5v205q0 31 22.5 54t54.5 23h205q31 0 54 -23t23 -54v-205q0 -32 -23 -54.5t-54 -22.5zM461 121q0 53 -37.5 90.5t-90.5 37.5h-205q-53 0 -90.5 -37.5t-37.5 -90.5v-205q0 -53 37.5 -90.5
t90.5 -37.5h205q53 0 90.5 37.5t37.5 90.5v205zM691 -161q-31 0 -54 22.5t-23 54.5v205q0 31 23 54t54 23h205q32 0 54.5 -23t22.5 -54v-205q0 -32 -22.5 -54.5t-54.5 -22.5h-205zM1024 -84v205q0 53 -37.5 90.5t-90.5 37.5h-205q-53 0 -90.5 -37.5t-37.5 -90.5v-205
q0 -53 37.5 -90.5t90.5 -37.5h205q53 0 90.5 37.5t37.5 90.5z" />
    <glyph glyph-name="zhanghu" unicode="&#xe603;" 
d="M929 -158l-68 5q-7 101 -67.5 182t-153.5 117q-61 -29 -128 -29t-128 29q-93 -36 -153.5 -117t-67.5 -182l-68 -5q7 112 68.5 203.5t159.5 141.5q-55 42 -86.5 105t-31.5 135q0 127 90 217t217 90t217 -90t90 -217q0 -72 -31.5 -135t-86.5 -105q98 -50 159.5 -141.5
t68.5 -203.5zM757 432q0 101 -72 173t-173 72t-173 -72t-72 -173t72 -173t173 -72t173 72t72 173z" />
    <glyph glyph-name="bag-line" unicode="&#xe618;" 
d="M886 556h-169v72q0 30 -21 51t-51 21h-290q-30 0 -51 -21t-21 -51v-72h-145q-30 0 -51 -21.5t-21 -51.5v-531q0 -30 21 -51t51 -21h748q30 0 51.5 21t21.5 51v531q0 30 -21.5 51.5t-51.5 21.5zM910 -24q0 -20 -14 -34t-34 -14h-700q-20 0 -34 14t-14 34v242h278v-32
q0 -12 8.5 -20.5t20.5 -8.5h182q12 0 20.5 8.5t8.5 20.5v32h278v-242zM423 188v111h178v-111h-178zM910 266h-278v35q0 11 -8.5 19.5t-20.5 8.5h-182q-12 0 -20.5 -8.5t-8.5 -19.5v-35h-278v193q0 20 14 34t34 14h169v97q0 20 14 34t34 14h242q20 0 34 -14t14 -34v-48v0v-49
h193q20 0 34 -14t14 -34v-193z" />
    <glyph glyph-name="shangchuanshenfenzhengzheng" unicode="&#xe61c;" horiz-adv-x="1485" 
d="M1369 120h-671v-51h671v51zM1369 296h-671v-51h671v51zM1369 479h-671v-50h671v50zM447 288q-62 -33 -111 -33q-40 0 -103 32q-38 -27 -64 -70.5t-26 -72.5q0 -42 57 -68t141 -26t141 26t57 68q0 29 -26 73t-66 71zM340 534q-51 0 -87 -35.5t-36 -86t36 -86t87 -35.5
t87 35.5t36 86t-36 86t-87 35.5zM1382 -212h-1280q-42 0 -72 30t-30 72v820q0 42 30 72t72 30h1280q43 0 73 -30t30 -72v-820q0 -42 -30 -72t-73 -30z" />
    <glyph glyph-name="shangchuanshenfenzhengfan" unicode="&#xe61e;" horiz-adv-x="1485" 
d="M1318 94l-1114 1v-51h1114v50zM1318 296l-1113 4v-48l1113 -7v51zM1318 505h-781v-51l781 1v50zM281.5 581q-42.5 0 -72.5 -30t-30 -72t30 -72t72.5 -30t72.5 30t30 72t-30 72t-72.5 30zM1382 -212h-1280q-42 0 -72 30t-30 72v820q0 42 30 72t72 30h1280q43 0 73 -30
t30 -72v-820q0 -42 -30 -72t-73 -30z" />
    <glyph glyph-name="close" unicode="&#xe617;" 
d="M959 -100l-47 -47l-400 401l-401 -401l-47 47l401 401l-401 400l47 47l401 -400l400 400l47 -47l-400 -400z" />
    <glyph glyph-name="jibenxinxi" unicode="&#xe619;" 
d="M352 268q-66 0 -113 47t-47 113t47 113t113 47t113 -47t47 -113t-47 -113t-113 -47zM352 524q-40 0 -68 -28t-28 -68t28 -68t68 -28t68 28t28 68t-28 68t-68 28zM512 7l-28 173l-78 26l20 60l115 -38l35 -211zM192 7l-64 10l35 211l115 38l20 -60l-78 -26zM640 524h128
v-64h-128v64zM640 396h256v-64h-256v64zM640 268h256v-64h-256v64zM640 140h256v-64h-256v64zM352 -52h320v-64h-320v64zM1024 -116h-288v64h224v704h-896v-704h224v-64h-288v832h1024v-832z" />
    <glyph glyph-name="shezhi" unicode="&#xe61b;" 
d="M512 480q-80 0 -136 -56t-56 -136t56 -136t136 -56t136 56t56 136t-56 136t-136 56zM512 160q-53 0 -90.5 37.5t-37.5 90.5t37.5 90.5t90.5 37.5t90.5 -37.5t37.5 -90.5t-37.5 -90.5t-90.5 -37.5zM960 384h-76q-14 52 -41 99l54 54q19 19 18.5 45.5t-18.5 44.5l-46 46
q-19 19 -45 19t-45 -19l-54 -54q-47 27 -99 41v76q0 27 -18.5 45.5t-45.5 18.5h-64q-27 0 -45.5 -18.5t-18.5 -45.5v-76q-52 -14 -99 -41l-54 54q-19 19 -45.5 18.5t-44.5 -18.5l-46 -46q-19 -19 -18.5 -45t18.5 -45l54 -54q-27 -47 -41 -99h-76q-27 0 -45.5 -18.5
t-18.5 -45.5v-64q0 -27 18.5 -45.5t45.5 -18.5h76q14 -52 41 -99l-54 -54q-19 -19 -18.5 -45.5t18.5 -44.5l46 -46q19 -19 45 -19t45 19l54 54q47 -27 99 -41v-76q0 -27 18.5 -45.5t45.5 -18.5h64q27 0 45.5 18.5t18.5 45.5v76q52 14 99 41l54 -54q19 -19 45.5 -18.5
t44.5 18.5l46 46q19 19 19 45t-19 45l-54 54q27 47 41 99h76q27 0 45.5 18.5t18.5 45.5v64q0 27 -18.5 45.5t-45.5 18.5zM960 256h-130q-9 -96 -70 -170l91 -92l-45 -45l-92 91q-74 -61 -170 -70v-130h-64v130q-96 9 -170 70l-92 -91l-45 45l91 92q-61 74 -70 170h-130v64
h130q9 96 70 170l-91 92l45 45l92 -91q74 61 170 70v130h64v-130q96 -9 170 -70l92 91l45 -45l-91 -92q61 -74 70 -170h130v-64z" />
    <glyph glyph-name="tuijian" unicode="&#xe616;" 
d="M615 172l1 1q30 20 66 34l7 2l-7 4q-25 14 -50 23l-13 6l12 8q59 40 92 103t33 135q0 120 -85.5 205.5t-206.5 85.5q-120 0 -205 -85t-85 -204q0 -72 33 -135t92 -103l12 -8l-13 -6q-131 -51 -212 -167q-78 -112 -81 -250v-3h68v3q4 142 100 249q99 111 245 128h1h2v0
q27 2 51 2t43 -2h5v0q48 -7 93 -25zM464 258q-97 0 -164.5 67.5t-67.5 164t67.5 164t164.5 67.5t164.5 -67.5t67.5 -164t-67.5 -164t-164.5 -67.5zM1024 -13l-228 181v-126h-192q-15 0 -21 -14v-2l-1 -1v-76h1v-3q6 -14 21 -14h192v-126z" />
    <glyph glyph-name="anquan" unicode="&#xe622;" 
d="M512 -147q-49 0 -114 34.5t-123 88t-98 126t-40 139.5v376l37 1q8 0 26 1.5t62 10.5t82 24q91 37 146 77l22 16l22 -16q55 -40 146 -77q38 -15 82 -24t62 -10.5t26 -1.5l37 -1v-376q0 -67 -40 -139.5t-98 -126t-123 -88t-114 -34.5v0zM213 545v-304q0 -52 34.5 -110
t82.5 -101.5t98.5 -72.5t83.5 -29t83.5 29t98.5 72.5t82.5 101.5t34.5 110v304q-85 9 -160 39q-75 31 -139 71q-63 -40 -139 -71q-75 -30 -160 -39v0zM492 100l-159 135l49 57l102 -86l194 222l57 -50zM492 100z" />
    <glyph glyph-name="xiajiantou" unicode="&#xe628;" 
d="M219 446h586l-293 -292z" />
    <glyph glyph-name="qianbao" unicode="&#xe624;" horiz-adv-x="1174" 
d="M977 551h-803q-41 0 -70.5 -29.5t-29.5 -70.5v-552q0 -42 29.5 -71.5t70.5 -29.5h803q42 0 71 29.5t29 71.5v552q0 41 -29 70.5t-71 29.5zM1027 -76q0 -31 -22 -53.5t-53 -22.5h-753q-31 0 -53 22.5t-22 53.5v501q0 32 22 54t53 22h753q31 0 53 -22t22 -54v-501zM902 225
h150v50h-175q-21 0 -35.5 -14.5t-14.5 -35.5v-101q0 -20 14.5 -35t35.5 -15h175v50h-150q-11 0 -18 7.5t-7 17.5v51q0 10 7 17.5t18 7.5zM926 792l1 -241h50v257zM943 797l-792 -249l-71 -75l878 276z" />
    <glyph glyph-name="34" unicode="&#xe623;" 
d="M512 714q-90 0 -166 -44t-120 -120t-44 -166t44 -166t120 -120t166 -44t166 44t120 120t44 166t-44 166t-120 120t-166 44zM512 108q-114 0 -195 81t-81 195t81 195t195 81t195 -81t81 -195t-81 -195t-195 -81zM617 485q3 -9 -1 -17t-13 -11t-17.5 1t-11.5 13
q-5 14 -21 24.5t-41 10.5q-22 0 -35.5 -12t-15.5 -29q-2 -19 13 -33t43 -20q50 -11 72.5 -40.5t18.5 -61.5q-3 -30 -23 -51.5t-50 -28.5v-28q0 -9 -7 -16t-16 -7t-16 7t-7 16v28q-32 5 -53.5 23.5t-28.5 40.5q-3 9 1 17.5t13 11.5t17.5 -1.5t11.5 -13.5q5 -14 20.5 -24.5
t41.5 -10.5q22 0 35.5 12.5t15.5 28.5q2 19 -13 33.5t-43 19.5q-51 11 -73 40.5t-18 62.5q3 29 23 50.5t50 28.5v28q0 10 7 16.5t16 6.5t16 -6.5t7 -16.5v-27q32 -6 53.5 -24t28.5 -41z" />
    <glyph glyph-name="star-hollow" unicode="&#xe626;" 
d="M1023 499q-4 11 -15 14l-309 76l-169 271q-6 9 -18 9t-18 -9l-168 -271l-309 -76q-12 -3 -15.5 -14t4.5 -20l205 -244l-23 -318q-1 -11 8.5 -18t20.5 -3l295 120l295 -120q4 -1 8 -1q7 0 13 4q9 6 8 18l-22 318l205 243q7 10 4 21v0zM776 255q-5 -6 -5 -15l21 -292
l-272 110q-4 2 -8 2t-8 -2l-271 -110l20 292q1 9 -5 15l-188 225l284 70q9 3 13 10l155 248l155 -248q5 -8 13 -10l285 -70zM776 255z" />
    <glyph glyph-name="geren" unicode="&#xe662;" 
d="M512 -128q-226 0 -340.5 51t-114.5 153q0 46 47 84.5t116 61.5t152 35v20q-140 99 -140 354q0 124 73 194.5t202 70.5h10q129 0 202 -70.5t73 -194.5q0 -256 -139 -355v-20q82 -11 151 -34t116 -62t47 -84q0 -204 -455 -204zM507 825q-30 0 -57 -4.5t-55.5 -17.5t-48 -34
t-32 -56.5t-12.5 -81.5q0 -230 123 -305q17 -10 17 -30v-71q0 -13 -9 -23.5t-23 -11.5q-118 -12 -200.5 -49t-82.5 -65q0 -40 34 -67.5t93.5 -41t121.5 -19t135.5 -5.5t136 5.5t122 19t93.5 41t34 67.5q0 28 -82.5 65t-200.5 49q-14 1 -23 11.5t-9 24.5l2 70q0 20 16 30
q63 38 92.5 112.5t29.5 192.5q0 46 -12.5 81.5t-32.5 56.5t-48 34t-55 17.5t-57 4.5h-10z" />
    <glyph glyph-name="icon1" unicode="&#xe62b;" 
d="M909 24l-73 492q-5 31 -34.5 51.5t-71.5 20.5h-46v104q0 63 -50.5 108t-121.5 45t-121 -44q-51 -45 -51 -109v-104h-46q-41 0 -71 -20.5t-35 -51.5l-73 -492q-4 -22 12 -40q14 -17 39.5 -26.5t53.5 -9.5h584q28 0 53.5 9.5t39.5 26.5q16 18 12 40zM369 692q0 51 42 87.5
t101 36.5t101 -36.5t42 -87.5v-104h-286v104zM875 3q-22 -26 -71 -26h-584q-49 0 -71 26q-7 8 -6 17l74 492q3 20 25 33.5t52 13.5h46v-65q-19 -5 -31.5 -21t-12.5 -36q0 -24 17 -41.5t41.5 -17.5t41.5 17.5t17 41.5q0 20 -12.5 36t-31.5 21v65h286v-65q-19 -5 -31.5 -21
t-12.5 -36q0 -24 17 -41.5t41.5 -17.5t41.5 17.5t17 41.5q0 20 -12.5 36t-31.5 21v65h46q32 0 53.5 -14.5t23.5 -32.5l74 -492q1 -9 -6 -17zM354.5 467q12.5 0 21 -9t8.5 -21t-8.5 -21t-21 -9t-21 9t-8.5 21t8.5 21t21 9zM669.5 467q12.5 0 21 -9t8.5 -21t-8.5 -21t-21 -9
t-21 9t-8.5 21t8.5 21t21 9z" />
    <glyph glyph-name="yuan" unicode="&#xe933;" 
d="M512 811q-116 0 -214.5 -57t-155.5 -155.5t-57 -214.5t57 -214.5t155.5 -155.5t214.5 -57t214.5 57t155.5 155.5t57 214.5t-57 214.5t-155.5 155.5t-214.5 57zM512 43q-93 0 -171.5 45.5t-124 124t-45.5 171.5t45.5 171.5t124 124t171.5 45.5t171.5 -45.5t124 -124
t45.5 -171.5t-45.5 -171.5t-124 -124t-171.5 -45.5z" />
    <glyph glyph-name="qianbao1" unicode="&#xe6c6;" horiz-adv-x="1061" 
d="M994 457zM850 -128h-640q-79 0 -135.5 56t-56.5 136v128v384v128q0 80 56.5 136t135.5 56h384q62 0 111 -35.5t70 -92.5h75q80 0 136 -56t56 -136v-96v-256v-160q0 -80 -56 -136t-136 -56v0v0v0zM594 832h-384q-48 0 -84 -32.5t-42 -80.5q55 49 126 49h495
q-17 29 -46.5 46.5t-64.5 17.5v0v0v0zM978 448q0 13 -9 22.5t-23 9.5h-320q-13 0 -22.5 -9.5t-9.5 -22.5v-192q0 -13 9.5 -22.5t22.5 -9.5h320q14 0 23 9.5t9 22.5v192v0v0v0zM978 160h-384q-26 0 -45 19t-19 45v256q0 26 19 45t45 19h384v32q0 53 -37.5 90.5t-90.5 37.5
h-640q-53 0 -90.5 -37.5t-37.5 -90.5v-512q0 -53 37.5 -90.5t90.5 -37.5h640q53 0 90.5 37.5t37.5 90.5v96v0v0v0zM658 384h64v-64h-64v64v0v0v0zM658 384z" />
    <glyph glyph-name="down-arrows" unicode="&#xe62a;" 
d="M60 495q0 8 5 15q6 9 17 11t21 -4l391 -279l391 279q9 6 20 4t17.5 -11t5 -20t-10.5 -18l-407 -289q-16 -12 -32 0l-407 289q-11 9 -11 23v0z" />
    <glyph glyph-name="geren1" unicode="&#xe633;" 
d="M844 -35h-664l-10 6q-28 16 -40 26q-37 31 -37 79l1 7q0 29 4 45q11 42 64 83q46 37 122 69q37 16 80 31q10 4 19 22q4 8 4 14q-31 37 -49.5 70t-27.5 79q-17 84 5 156q17 57 54 94t90 50l10 2v5h86v-5l10 -2q54 -13 91 -50q36 -37 53 -94q22 -72 5 -156
q-9 -45 -27.5 -78.5t-48.5 -70.5q0 -6 4 -14q8 -18 18 -22q45 -15 80 -31q76 -32 123 -69q23 -18 36 -33q20 -23 27 -50q5 -16 5 -45v-7q1 -48 -37 -79q-10 -9 -40 -26l-10 -6v0z" />
    <glyph glyph-name="xingcheng" unicode="&#xe7c9;" 
d="M846 756h-102v76h-51v-76h-356v76h-51v-76h-109q-41 0 -70 -29t-29 -70v-620q0 -41 29 -70t70 -29h669q41 0 70 29t29 70v620q0 41 -29 70t-70 29v0zM896 37q0 -20 -14.5 -34.5t-35.5 -14.5h-669q-20 0 -34.5 14.5t-14.5 34.5v620q0 20 14.5 34.5t34.5 14.5h109v-90h51
v90h356v-90h51v90h102q21 0 35.5 -14.5t14.5 -34.5v-620v0v0zM896 37zM240 368h72v-55h-72v55v0zM240 368zM367 368h419v-55h-419v55v0zM367 368zM240 504h72v-56h-72v56v0zM240 504zM367 504h419v-56h-419v56v0zM367 504zM240 232h72v-55h-72v55v0zM240 232zM367 232h419
v-55h-419v55v0zM367 232z" />
    <glyph glyph-name="yuandian" unicode="&#xe627;" 
d="M512 384zM126 384q0 105 51.5 194t140.5 140.5t194 51.5t194 -51.5t140.5 -140.5t51.5 -194t-51.5 -194t-140.5 -140.5t-194 -51.5t-194 51.5t-140.5 140.5t-51.5 194z" />
    <glyph glyph-name="erjixian" unicode="&#xe725;" 
d="M958 432q2 11 2 32q0 179 -131 305.5t-317 126.5t-317 -126.5t-131 -305.5q0 -6 1 -16.5t1 -15.5q-30 -17 -48 -47t-18 -65v-192q0 -53 37.5 -90.5t90.5 -37.5h128q52 2 90 39.5t38 88.5v192q0 53 -37.5 90.5t-90.5 37.5h-128q0 160 112 272t272 112q162 0 273 -107.5
t111 -276.5h-128q-53 0 -90.5 -37.5t-37.5 -90.5v-192q0 -51 38 -88.5t90 -39.5h64v-96q0 -13 9.5 -22.5t22.5 -9.5t22.5 9.5t9.5 22.5v96q53 0 90.5 37.5t37.5 90.5v192q0 35 -18 65t-48 47zM216 384h40q26 0 45 -19t19 -45v-192q0 -26 -19 -45t-45 -19h-27q-37 87 -37 176
q0 69 24 144zM149 384q-21 -73 -21 -144q0 -92 30 -176h-30q-26 0 -45 19t-19 45v192q0 26 19 45t45 19h21zM795 64h-27q-26 0 -45 19t-19 45v192q0 26 19 45t45 19h40q24 -75 24 -144q0 -95 -37 -176zM960 128q0 -26 -19 -45t-45 -19h-30q30 84 30 176q0 71 -21 144h21
q26 0 45 -19t19 -45v-192z" />
    <glyph glyph-name="shangjiantou01" unicode="&#xe629;" 
d="M100 36q-15 0 -23 12q-7 10 -5 21.5t12 17.5l414 290q9 7 20.5 5t18.5 -11.5t5 -21t-12 -18.5l-414 -290q-7 -5 -16 -5zM928 36q-9 0 -16 5l-414 290q-10 7 -12 18.5t5 21t18.5 11.5t20.5 -5l414 -290q9 -6 11.5 -17.5t-4.5 -21.5q-9 -12 -23 -12z" />
    <glyph glyph-name="funnelloudou" unicode="&#xe6ca;" 
d="M557 -123l-157 158q-5 9 -5 14v426l-389 386q-10 13 -3 23q5 12 17 12h946q12 0 17 -12q7 -10 -3 -22l-389 -387v-583q0 -12 -12 -17q-2 -3 -7 -3t-15 5zM434 57l118 -118v544q0 5 5 14l362 360h-852l362 -360q5 -9 5 -14v-426z" />
    <glyph glyph-name="shouye" unicode="&#xe630;" horiz-adv-x="1025" 
d="M992 453l-389 404q-37 39 -90.5 39t-91.5 -39l-388 -404q-19 -19 -26.5 -39t-7 -32t5.5 -21q17 -40 66 -40h57v-311q0 -55 35 -96t88 -41h65h100v73v256v14v12.5t1 9.5t3 8.5t5 5t8.5 4.5t13.5 1h65h66q7 0 12.5 -1t9 -4.5t5.5 -5t2.5 -8.5t1 -9.5t0 -12.5t-0.5 -14v-256
v-73h100h66q52 0 87 41t35 96v311h57q49 0 67 40q4 9 5 21t-7 32t-26 39v0zM992 453z" />
    <glyph glyph-name="daohang1" unicode="&#xe65b;" 
d="M1004 872q-7 6 -21 6l-954 -429q-6 0 -10 -5.5t-4 -15.5q0 -5 4.5 -9t9.5 -4l450 -62l68 -450q0 -5 4 -9t10 -4q7 0 20 13l423 948q10 10 0 21v0z" />
    <glyph glyph-name="laba" unicode="&#xe679;" 
d="M443 741q-20 0 -41 -21l-131 -134h-107q-32 0 -52.5 -23t-20.5 -58v-217q0 -38 20 -67.5t53 -29.5h94l145 -140q18 -18 37 -18q24 0 36 23q8 15 8 37v593q0 28 -12 41.5t-29 13.5zM432 96l-145 140q-8 8 -19 8h-104q-7 0 -14 14t-7 30v217q0 28 21 28h118q11 0 19 8
l131 134v-579zM616 717q-11 0 -19 -7.5t-8 -18t7 -18.5t18 -9q109 -3 186 -84.5t77 -193t-76 -191t-187 -83.5q-11 0 -18 -8t-7 -19q0 -10 8 -17.5t18 -7.5h1q86 0 158.5 44.5t114 119.5t41.5 162t-42 162t-114.5 120.5t-157.5 48.5zM720 388q0 67 -45 116.5t-110 54.5
q-11 1 -19.5 -6t-9 -18t6.5 -19t18 -9q45 -4 76 -38t31 -80.5t-31 -81t-76 -37.5q-11 -1 -18 -9t-6 -19q0 -10 7.5 -17t18.5 -7h2q65 4 110 53.5t45 116.5z" />
    <glyph glyph-name="jiantou" unicode="&#xe631;" 
d="M867 365l-313 -315q-9 -11 -22 -16h-1q-7 -3 -16 -3q-1 0 -1.5 -0.5t-1.5 -0.5t-2 0.5t-2 0.5q-5 0 -10 2q-5 1 -11 5q-2 1 -6 4q-1 0 -3 1.5t-3 2.5l-318 319q-15 15 -15 37t15 37t37 15t37 -15l229 -229v511q0 22 15.5 37.5t37.5 15.5t37.5 -15.5t15.5 -37.5v-510
l227 228q15 15 37 15t37 -15t15 -37t-15 -37z" />
    <glyph glyph-name="xinfengclosed" unicode="&#xe689;" horiz-adv-x="1026" 
d="M69 -23q-69 0 -69 70v661q0 69 69 69h873q69 0 69 -69v-661q0 -70 -69 -70h-873zM59 37h893v666l-423 -423q-10 -12 -23 -12q-11 0 -19 7q-13 12 -388 386l-40 40v-664zM505 339l378 379h-756z" />
    <glyph glyph-name="xiaolian" unicode="&#xe635;" 
d="M511 22v0q98 0 182 48.5t132.5 132.5t48.5 182.5t-48.5 182t-132.5 132t-182.5 48.5t-182 -48.5t-132 -132t-48.5 -182t48.5 -182.5t132 -132.5t182.5 -48.5v0v0zM511 -61v0q-91 0 -174 35t-142.5 95t-95 142.5t-35.5 173.5t35.5 174t95 142.5t142.5 95t174 35.5
t173.5 -35.5t142.5 -95t95 -142.5t35 -174t-35 -173.5t-95 -142.5t-142.5 -95t-173.5 -35v0v0zM371 399q29 0 49.5 20.5t20.5 49.5t-20.5 49.5t-49.5 20.5t-49.5 -20.5t-20.5 -49.5t20.5 -49.5t49.5 -20.5v0v0zM650 399q29 0 49.5 20.5t20.5 49.5t-20.5 49.5t-49.5 20.5
t-49 -20.5t-20 -49.5t20 -49.5t49 -20.5v0v0zM511 184q-53 0 -97.5 31t-66.5 81q0 3 -1.5 7.5t-9.5 12.5t-21 8t-20 -7t-7 -14l-1 -7q24 -73 85.5 -120.5t138.5 -47.5t140 48t83 120q0 3 -0.5 7.5t-7.5 12.5t-19 8t-20 -7t-10 -14l-2 -7q-19 -49 -64.5 -80.5t-99.5 -31.5v0z
" />
    <glyph glyph-name="wodeqianbao" unicode="&#xe64b;" horiz-adv-x="1081" 
d="M79 575q0 44 21.5 73.5t60.5 38.5l651 151q24 5 44.5 -8t26.5 -37l47 -162q-498 -3 -736 0q-5 0 -16.5 -3.5t-26 -17.5t-14.5 -34l751 -1q40 0 70.5 -38t30.5 -81v-396q0 -41 -37 -76.5t-78 -35.5h-680q-41 0 -78 35.5t-37 76.5v515zM870 295q0 29 -20 49t-48.5 20
t-49 -20t-20.5 -49t20.5 -49t49 -20t48.5 20t20 49z" />
    <glyph glyph-name="buoumaotubiao25" unicode="&#xe62e;" 
d="M899 -110h-629q-48 0 -82 34t-34 82v629q0 48 34 82t82 34h629q48 0 82 -34t34 -82v-629q0 -48 -34 -82t-82 -34zM270 705q-29 0 -49 -20.5t-20 -49.5v-629q0 -28 20 -48.5t49 -20.5h629q29 0 49.5 20.5t20.5 48.5v629q0 29 -20.5 49.5t-49.5 20.5h-629zM131 12
q-51 0 -84 33.5t-33 82.5v628q0 49 38.5 80t87.5 31h628q49 0 81.5 -32t32.5 -84h-46q0 34 -19 52t-49 18h-628q-31 0 -55 -18.5t-24 -46.5v-628q0 -30 18 -50t52 -20v-46zM270 518h605v-46h-605v46zM270 286h605v-47h-605v47zM270 99h349v-46h-349v46z" />
    <glyph glyph-name="ditu" unicode="&#xe62c;" 
d="M511 407q57 0 97.5 40.5t40.5 97t-40.5 97t-97.5 40.5q-56 0 -97 -41q-40 -40 -40 -96.5t40 -97.5q40 -40 97 -40zM440 616q30 29 72 29t71.5 -29.5t29.5 -71.5q0 -41 -30 -71v0q-29 -29 -71.5 -29t-72 29.5t-29.5 71.5q0 41 30 71zM511 94l231 230q46 46 71 106t25 125
q0 136 -96 231q-95 96 -231 96q-135 0 -230.5 -96t-95.5 -231q0 -136 96 -231zM307 760.5q85 84.5 204 84.5q121 0 206 -84.5t85 -205t-85 -205.5l-206 -206l-204 206q-85 85 -85 205.5t85 205zM1008 -47l-103 358q-4 15 -18.5 25t-32.5 10h-57q-8 0 -13 -5t-5 -13t5 -13
t13 -5h57q6 0 10.5 -3t5.5 -7l103 -358q3 -8 0 -12q-2 -3 -7 -3h-909q-4 0 -7 3q-3 5 -1 12l103 358q1 3 6 6.5t11 3.5h60q8 0 13 5t5 13t-5 13t-13 5h-60q-18 0 -32.5 -10t-19.5 -25l-102 -358q-7 -25 7 -44q13 -17 36 -17h908q23 0 36 17q14 19 6 44z" />
    <glyph glyph-name="fenlei-copy" unicode="&#xe62d;" 
d="M106.5 697q-17.5 0 -29.5 -12.5t-12 -29.5t12 -29.5t29.5 -12.5t29.5 12.5t12 29.5t-12 29.5t-29.5 12.5zM106.5 389q-17.5 0 -29.5 -12t-12 -29.5t12 -30t29.5 -12.5t29.5 12.5t12 30t-12 29.5t-29.5 12zM106.5 110q-17.5 0 -29.5 -12.5t-12 -30t12 -29.5t29.5 -12
t29.5 12t12 29.5t-12 30t-29.5 12.5zM946 697h-644q-5 0 -9.5 -4t-4.5 -10v-28q0 -6 4.5 -10t9.5 -4h644q5 0 9.5 4t4.5 10v28q0 6 -4.5 10t-9.5 4zM946 389h-644q-5 0 -9.5 -4t-4.5 -10v-28q0 -6 4.5 -10t9.5 -4h644q5 0 9.5 4t4.5 10v28q0 6 -4.5 10t-9.5 4zM946 110h-644
q-5 0 -9.5 -4.5t-4.5 -9.5v-28q0 -6 4.5 -10t9.5 -4h644q5 0 9.5 4t4.5 10v28q0 5 -4.5 9.5t-9.5 4.5z" />
    <glyph glyph-name="dagou" unicode="&#xe634;" 
d="M228 351l92 92l184 -184q4 9 13.5 25t49.5 64.5t92.5 94.5t148.5 108t211 113v-74q-4 0 -11 -1.5t-31.5 -13t-52.5 -29t-73.5 -55.5t-94.5 -88t-115.5 -130.5t-136.5 -178.5zM905 -5q0 -5 -4 -9t-9 -4h-767q-6 0 -9.5 4t-3.5 9v767q0 5 3.5 9t9.5 4h767q5 0 9 -4t4 -9
v-98h25v98q0 16 -11 27.5t-27 11.5h-767q-16 0 -27.5 -11.5t-11.5 -27.5v-767q0 -16 11.5 -27t27.5 -11h767q16 0 27 11t11 27v487h-25v-487z" />
    <glyph glyph-name="buchongxinxi" unicode="&#xe646;" 
d="M280 377zM212 377v0q0 -28 20 -48t48 -20t48 20t20 48v0v0q0 28 -20 48t-48 20t-48 -20t-20 -48v0zM519 377zM451 377v0q0 -28 20 -48t48 -20t48 20t20 48v0v0q0 28 -20 48t-48 20t-48 -20t-20 -48v0zM758 377zM689 377q0 -28 20 -48t48.5 -20t48.5 20t20 48t-20 48
t-48.5 20t-48.5 -20t-20 -48zM512 896q-212 0 -362 -150t-150 -362t150 -362t362 -150t362 150t150 362t-150 362t-362 150zM512 -60q-91 0 -173 35t-141.5 94.5t-94.5 141.5t-35 173t35 173t94.5 141.5t141.5 94.5t173 35t173 -35t141.5 -94.5t94.5 -141.5t35 -173
t-35 -173t-94.5 -141.5t-141.5 -94.5t-173 -35z" />
    <glyph glyph-name="shuangjiantou2" unicode="&#xe632;" horiz-adv-x="1025" 
d="M557 391q-19 17 -45 17t-44 -17l-450 -419q-18 -17 -18 -41.5t18.5 -41.5t44.5 -17t44 17l405 377l404 -377q19 -17 45 -17t44.5 17t18.5 41.5t-18 41.5zM108 377l404 377l404 -377q19 -17 45 -17t44.5 17t18.5 41.5t-18 41.5l-449 419q-19 17 -45 17t-45 -17l-449 -419
q-18 -17 -18 -41.5t18.5 -41.5t44.5 -17t45 17v0zM108 252z" />
    <glyph glyph-name="jinqian" unicode="&#xe636;" 
d="M512 605q-59 0 -100.5 44t-41.5 106q0 26 22.5 43.5t53 24t66.5 6.5t66.5 -6.5t53 -24t22.5 -43.5q0 -62 -41.5 -106t-100.5 -44zM512 789q-43 0 -72.5 -10.5t-29.5 -23.5q0 -45 30 -77.5t72 -32.5t72 32.5t30 77.5q0 12 -26 22q-30 12 -76 12zM512 -61q-163 0 -276 50
q-134 59 -134 164q0 132 55 244.5t149.5 178t205.5 65.5t206 -65.5t150 -178t55 -244.5q0 -53 -36 -95t-96 -67.5t-131.5 -38.5t-147.5 -13zM512 600q-100 0 -185.5 -60t-135 -163t-49.5 -224q0 -55 55 -95.5t137.5 -59.5t177.5 -19t177.5 19t137.5 59.5t55 95.5
q0 121 -49.5 224t-135 163t-185.5 60zM639 258q9 0 15 -6.5t6 -15t-6 -15t-15 -6.5h-106v-103q0 -8 -6 -14.5t-15 -6.5t-15 6.5t-6 14.5v103h-106q-9 0 -15 6.5t-6 15t6 15t15 6.5h106v45h-106q-9 0 -15 6t-6 15t6 15t15 6h97l-103 108q-6 6 -5.5 14.5t6.5 15t15 6t15 -6.5
l102 -106l105 105q6 6 15 6t15 -6t6 -15t-6 -15l-106 -106h98q9 0 15 -6t6 -15t-6 -15t-15 -6h-106v-45h106z" />
  </font>
</defs>
</svg>
